{"title":"Divergent.Series.Allegiant.2016.HD-TS.x264.AC3.HQ.Garmin","uid":14012809,"size":734833129,"categoryP":"video","categoryS":"movies","magnet":"?xt=urn:btih:bea4351f13ca8a8ef6ed5aad08831e49f4975893&amp;dn=Divergent.Series.Allegiant.2016.HD-TS.x264.AC3.HQ.Garmin&amp;tr=udp%3A%2F%2Ftracker.leechers-paradise.org%3A6969&amp;tr=udp%3A%2F%2Fzer0day.ch%3A1337&amp;tr=udp%3A%2F%2Fopen.demonii.com%3A1337&amp;tr=udp%3A%2F%2Ftracker.coppersurfer.tk%3A6969&amp;tr=udp%3A%2F%2Fexodus.desync.com%3A6969","seeders":9,"leechers":4,"uploader":"Supernova","files":4,"time":1458842725,"description":"http://boltimg.com/image/sfUC\r\n\r\nComplete name                            : D:VideosDivergent.Series.Allegiant.2016.HD-TS.x264.AC3.HQ.GarminDivergent.Series.Allegiant.2016.HD-TS.x264.AC3.HQ.mkv\r\nFormat                                   : Matroska\r\nFormat version                           : Version 4 / Version 2\r\nFile size                                : 650 MiB\r\nDuration                                 : 1h 48mn\r\nOverall bit rate                         : 836 Kbps\r\n\r\nVideo\r\nID                                       : 1\r\nFormat                                   : AVC\r\nFormat/Info                              : Advanced Video Codec\r\nFormat profile                           :   \r\nFormat settings, CABAC                   : Yes\r\nFormat settings, ReFrames                : 5 frames\r\nCodec ID                                 : V_MPEG4/ISO/AVC\r\nDuration                                 : 1h 48mn\r\nBit rate                                 : 691 Kbps\r\nWidth                                    : 720 pixels\r\nHeight                                   : 304 pixels\r\nDisplay aspect ratio                     : 2.35:1\r\nFrame rate mode                          : Constant\r\nFrame rate                               : 29.970 fps\r\nColor space                              : YUV\r\nChroma subsampling                       : 4:2:0\r\nBit depth                                : 8 bits\r\nScan type                                : Progressive\r\nBits/(Pixel*Frame)                       : 0.105\r\nStream size                              : 538 MiB (83%)\r\nWriting library                          : x264 core 146 r2538 121396c\r\nEncoding settings                        : cabac=1 / ref=5 / deblock=1:-3:-3 / analyse=0x3:0x133 / me=hex / subme=7 / psy=1 / psy_rd=1.80:0.00 \r\n/ mixed_ref=1 / me_range=16 / chroma_me=1 / trellis=1 / 8x8dct=1 / cqm=0 / deadzone=21,11 / fast_pskip=1 / chroma_qp_offset=-2 / threads=9 / \r\nlookahead_threads=1 / sliced_threads=0 / nr=0 / decimate=1 / interlaced=0 / bluray_compat=0 / constrained_intra=0 / bframes=3 / b_pyramid=2 / \r\nb_adapt=2 / b_bias=0 / direct=3 / weightb=1 / open_gop=0 / weightp=2 / keyint=250 / keyint_min=25 / scenecut=40 / intra_refresh=0 / \r\nrc_lookahead=40 / rc=crf / mbtree=1 / crf=17.0 / qcomp=0.60 / qpmin=10 / qpmax=51 / qpstep=4 / ip_ratio=1.40 / aq=2:1.50\r\n\r\nDefault                                  : Yes\r\nForced                                   : No\r\n\r\nAudio\r\nID                                       : 2\r\nFormat                                   : AC-3\r\nFormat/Info                              : Audio Coding 3\r\nMode extension                           : CM (complete main)\r\nFormat settings, Endianness              : Big\r\nCodec ID                                 : A_AC3\r\nDuration                                 : 1h 48mn\r\nBit rate mode                            : Constant\r\nBit rate                                 : 128 Kbps\r\nChannel(s)                               : 3 channels\r\nChannel positions                        : Front: L C R\r\nSampling rate                            : 48.0 KHz\r\nCompression mode                         : Lossy\r\nDelay relative to video                  : 3ms\r\nStream size                              : 99.5 MiB (15%)\r\nDefault                                  : Yes\r\nForced                                   : No\r\nSource Video                             : DIVERGEHT.2016.D.CAMRip.1400Mb\r\nSource Audio                             : Divergent.Series.Allegiant.2016.HD-TS.XVID.AC3.HQ.Hive-CM8\r\nGenre                                    : Action, Adventure, Mystery\r\nRelease Date                             : 18 March 2016 (USA)\r\nSample Included                          : Yes\r\nImdb                                     : http://www.imdb.com/title/tt3410834/\r\n\r\nSo here is our version of allegiant. We used the russian video and Hive-CM8 audio\r\nwe adjusted the colors and the bright spots also fixed pixelation then muxed\r\nHive-CM8 audio to ours we needed to cut it in 4 spots to sync it to ours but\r\nall good now. As always check sample as screens always look better.  \r\n\r\n\r\nSCREENS\r\n \nhttp://boltimg.com/image/s2KG \nhttp://boltimg.com/image/sAcF \nhttp://boltimg.com/image/sa9b \nhttp://boltimg.com/image/soaN","torrent":{"xt":"urn:btih:bea4351f13ca8a8ef6ed5aad08831e49f4975893","amp;dn":"Divergent.Series.Allegiant.2016.HD-TS.x264.AC3.HQ.Garmin","amp;tr":["udp%3A%2F%2Ftracker.leechers-paradise.org%3A6969","udp%3A%2F%2Fzer0day.ch%3A1337","udp%3A%2F%2Fopen.demonii.com%3A1337","udp%3A%2F%2Ftracker.coppersurfer.tk%3A6969","udp%3A%2F%2Fexodus.desync.com%3A6969"],"infoHash":"bea4351f13ca8a8ef6ed5aad08831e49f4975893","infoHashBuffer":{"type":"Buffer","data":[190,164,53,31,19,202,138,142,246,237,90,173,8,131,30,73,244,151,88,147]},"announce":[],"urlList":[]}}